<svg xmlns="http://www.w3.org/2000/svg" viewBox="0 0 512 512"><defs><filter id="s" x="-20%" y="-20%" width="140%" height="140%"><feDropShadow dx="0" dy="5" stdDeviation="5" flood-opacity=".18"/></filter><linearGradient id="r" x1="0" y1="0" x2="0" y2="1"><stop stop-color="#ff2424"/><stop offset=".55" stop-color="#e50000"/><stop offset="1" stop-color="#b90000"/></linearGradient><linearGradient id="w" x1="0" y1="0" x2="1" y2="1"><stop stop-color="#fff"/><stop offset="1" stop-color="#e7e7e7"/></linearGradient></defs><rect width="512" height="512" rx="105" fill="#fff"/><g filter="url(#s)" font-family="Arial,sans-serif" font-weight="900" fill="url(#r)" stroke="#bd0000" stroke-width="1"><text x="256" y="88" text-anchor="middle" font-size="55">MINHAS</text><text x="256" y="428" text-anchor="middle" font-size="47">RECLAMAÇÕES</text></g><g filter="url(#s)"><path d="M111 219c0-22 17-39 39-39h83l119-62v193l-119-62h-83c-22 0-39-8-39-30z" fill="url(#r)"/><path d="M210 184l142-66v193l-142-66z" fill="url(#w)" stroke="#d90000" stroke-width="9"/><ellipse cx="352" cy="214.5" rx="52" ry="98" fill="url(#w)" stroke="url(#r)" stroke-width="14"/><ellipse cx="352" cy="214.5" rx="17" ry="37" fill="url(#r)"/><rect x="145" y="246" width="55" height="105" rx="18" fill="url(#r)" transform="rotate(-9 172 298)"/><path d="M398 153l44-28M408 213h52M397 274l44 29" stroke="url(#r)" stroke-width="16" stroke-linecap="round"/><path d="M127 166l-24-14M121 187l-29-2" stroke="url(#r)" stroke-width="10" stroke-linecap="round"/></g><path d="M139 450q117 22 234 0" fill="none" stroke="url(#r)" stroke-width="9" stroke-linecap="round"/></svg>